<svg version="1.1" xmlns="http://www.w3.org/2000/svg" xmlns:xlink="http://www.w3.org/1999/xlink" width="1280.000000pt" height="1280.000000pt" viewBox="0,0,256,256"><g fill="#c81f1f" fill-rule="nonzero" stroke="none" stroke-width="1" stroke-linecap="butt" stroke-linejoin="miter" stroke-miterlimit="10" stroke-dasharray="" stroke-dashoffset="0" font-family="none" font-weight="none" font-size="none" text-anchor="none" style="mix-blend-mode: normal"><g transform="translate(-1.19319,0.44704) scale(0.2,0.2)"><g transform="translate(0,1280) scale(0.1,-0.1)"><path d="M5265,11919c-671,-12 -1014,-33 -1062,-65c-29,-18 -30,-59 -3,-76c30,-19 29,-123 -2,-147c-25,-21 -19,-66 11,-76c17,-5 19,-22 25,-223c4,-119 9,-232 12,-250c3,-23 2,-32 -5,-27c-6,3 -11,13 -11,22c0,37 -81,181 -135,240c-214,236 -670,323 -976,186c-349,-157 -606,-558 -648,-1012c-35,-368 63,-829 247,-1171c192,-357 650,-850 1057,-1137c122,-86 264,-170 495,-293c247,-131 328,-190 384,-280c38,-60 39,-77 2,-33c-54,62 -112,87 -194,81c-83,-6 -153,-40 -209,-100c-50,-55 -68,-104 -67,-188c1,-119 69,-221 182,-273c39,-18 66,-21 157,-22c97,0 116,3 155,24c104,54 141,115 149,246l6,90l39,-100c22,-55 83,-199 136,-320c136,-310 136,-308 116,-336c-22,-32 -20,-54 6,-79c21,-19 21,-23 9,-92c-29,-176 -34,-215 -27,-242c12,-50 85,-111 221,-187c216,-119 265,-165 265,-246c0,-37 -2,-41 -37,-51c-93,-29 -143,-85 -143,-162c1,-96 58,-175 319,-437c148,-148 197,-204 216,-245c26,-58 50,-183 60,-319l7,-86l-87,-12c-235,-33 -346,-104 -422,-269c-20,-43 -37,-79 -38,-80c-2,-2 -46,-12 -98,-22c-174,-34 -246,-61 -307,-116c-49,-45 -83,-108 -106,-198c-12,-49 -21,-66 -33,-66c-32,0 -229,-59 -284,-85c-193,-92 -251,-274 -292,-920c-22,-358 -39,-477 -76,-541c-16,-28 -35,-56 -42,-61c-6,-5 -61,-27 -122,-48c-284,-98 -410,-208 -482,-419c-38,-111 -38,-203 -1,-267c163,-277 1173,-479 2540,-508c1175,-25 2226,84 2768,286c286,107 374,222 321,425c-63,242 -203,371 -519,478l-102,35l-34,65c-41,79 -49,140 -71,515c-18,302 -38,482 -65,605c-59,264 -130,334 -417,409l-106,27l-21,75c-59,199 -123,244 -444,311l-63,13l-29,67c-35,83 -74,138 -131,183c-69,53 -148,78 -343,110l-38,6l6,92c9,121 22,197 48,277c20,63 28,72 232,280c282,286 319,337 320,435c0,70 -29,109 -111,148c-36,16 -67,36 -70,44c-10,27 18,93 55,129c37,36 79,62 268,168c159,88 188,134 165,265c-37,205 -36,199 -13,224c26,28 28,54 6,78c-15,17 -14,23 10,84c14,36 56,132 93,213c36,81 94,213 128,294l62,148l6,-75c13,-177 134,-274 326,-263c136,8 245,75 291,181c84,190 -39,390 -250,405c-55,4 -74,1 -110,-18c-25,-13 -57,-36 -72,-52c-41,-44 -34,-18 12,43c57,77 140,135 355,250c352,188 475,266 685,434c264,211 587,554 771,820c246,354 395,900 359,1313c-50,562 -401,1015 -840,1085c-86,14 -124,15 -210,7c-326,-31 -553,-164 -665,-391c-26,-54 -44,-81 -41,-64c3,17 8,123 12,237c6,204 7,208 30,223c30,19 32,60 4,77c-28,18 -29,122 -1,137c54,29 26,85 -51,100c-265,53 -2075,84 -3423,60zM3592,11215c268,-55 508,-317 568,-619c21,-105 36,-286 23,-286c-4,1 -17,15 -28,32c-59,95 -232,141 -332,90c-152,-78 -187,-301 -68,-439c90,-105 272,-121 391,-35c56,41 101,131 123,245l18,92l7,-95c13,-176 36,-383 72,-650c103,-780 182,-1205 299,-1605c26,-88 49,-169 52,-180c3,-11 -9,2 -27,30c-39,59 -142,164 -225,227c-33,25 -161,113 -285,196c-354,237 -556,410 -754,647c-173,206 -274,361 -386,590c-160,326 -219,555 -207,810c11,263 130,563 306,772c143,169 264,217 453,178zM9565,11182c181,-69 395,-392 471,-711c78,-326 20,-641 -196,-1068c-182,-359 -461,-699 -785,-957c-60,-48 -202,-149 -315,-224c-309,-205 -401,-278 -487,-388c-25,-33 -43,-51 -40,-42c22,62 111,389 141,518c93,407 229,1274 273,1743l17,189l23,-93c43,-175 134,-257 285,-259c142,-1 240,73 275,207c51,193 -77,361 -259,340c-71,-9 -150,-50 -194,-100l-36,-42l7,90c21,296 104,483 290,653c96,88 216,144 355,166c40,6 131,-5 175,-22zM3979,10344c49,-10 81,-46 81,-93c0,-43 10,-57 65,-91c19,-12 35,-24 35,-27c0,-20 -51,-69 -89,-86c-96,-42 -199,-21 -248,53c-39,57 -47,104 -25,153c22,49 38,64 89,83c45,15 51,16 92,8zM9060,10310c89,-45 100,-156 23,-240c-71,-79 -196,-79 -275,0c-21,21 -38,42 -38,46c0,5 20,21 44,35c40,24 44,32 51,75c3,27 12,57 19,66c30,41 115,49 176,18zM4541,7534c35,-17 87,-78 95,-110c10,-39 -12,-99 -47,-128c-52,-44 -143,-30 -179,28c-8,11 -14,52 -15,91c-1,39 -5,80 -9,91c-5,18 0,24 31,37c40,17 79,14 124,-9zM8513,7538c13,-7 16,-15 11,-26c-5,-9 -8,-52 -9,-94c0,-61 -5,-81 -20,-98c-84,-93 -215,-46 -215,77c0,54 38,105 102,137c53,27 86,28 131,4z"></path></g></g></g></svg>