<svg version="1.1" xmlns="http://www.w3.org/2000/svg" xmlns:xlink="http://www.w3.org/1999/xlink" width="256px" height="256px" viewBox="0,0,256,256"><g fill="#c81f1f" fill-rule="nonzero" stroke="none" stroke-width="1" stroke-linecap="butt" stroke-linejoin="miter" stroke-miterlimit="10" stroke-dasharray="" stroke-dashoffset="0" font-family="none" font-weight="none" font-size="none" text-anchor="none" style="mix-blend-mode: normal"><g transform="translate(0,-0.05)"><g><g><g><path d="M178.6,144.9h40.2c-0.4,0.5 -0.9,1 -1.3,1.4c-0.5,0.4 -0.8,0.7 -1.2,1l-0.4,0.5l-82,79c-1.6,1.6 -3.5,2.4 -5.8,2.4c-2.3,0 -4.2,-0.8 -5.8,-2.4l-82.3,-79.3c-0.4,-0.2 -1.4,-1.1 -2.8,-2.6h48.6c1.9,0 3.7,-0.6 5.2,-1.8c1.5,-1.2 2.5,-2.7 3,-4.6l9.2,-37l25,87.9c0.5,1.8 1.5,3.2 3,4.3c1.5,1.1 3.2,1.7 5.1,1.7c1.9,0 3.5,-0.6 5,-1.7c1.5,-1.1 2.5,-2.6 3,-4.3l19.2,-63.9l7.4,14.8c1.7,3 4.3,4.6 7.7,4.6zM246,88.5c0,12.7 -4.5,25.9 -13.6,39.5h-48.6l-14.6,-29.1c-0.7,-1.5 -1.8,-2.7 -3.3,-3.6c-1.5,-0.9 -3.1,-1.2 -4.8,-1.1c-3.9,0.4 -6.4,2.5 -7.4,6.1l-17,56.6l-25.8,-90.4c-0.5,-1.8 -1.6,-3.2 -3.1,-4.3c-1.5,-1.1 -3.3,-1.7 -5.2,-1.7c-1.9,0 -3.6,0.6 -5.1,1.8c-1.5,1.2 -2.5,2.7 -2.9,4.6l-15.3,61.1h-55.7c-9,-13.6 -13.6,-26.8 -13.6,-39.5c0,-19.3 5.6,-34.4 16.7,-45.3c11.2,-10.9 26.6,-16.3 46.3,-16.3c5.4,0 11,0.9 16.7,2.8c5.7,1.9 10.9,4.4 15.8,7.6c4.9,3.2 9.1,6.2 12.6,9c3.5,2.8 6.8,5.8 10,9c3.2,-3.2 6.5,-6.1 10,-9c3.5,-2.8 7.7,-5.8 12.6,-9c4.9,-3.2 10.1,-5.8 15.8,-7.6c5.7,-1.9 11.2,-2.8 16.7,-2.8c19.7,0 35.1,5.4 46.2,16.3c11,10.9 16.6,26 16.6,45.3z"></path></g></g></g></g></g></svg>