<svg version="1.1" xmlns="http://www.w3.org/2000/svg" xmlns:xlink="http://www.w3.org/1999/xlink" width="1280.000000pt" height="944.000000pt" viewBox="0,0,256,188.79688"><g fill="#c81f1f" fill-rule="nonzero" stroke="none" stroke-width="1" stroke-linecap="butt" stroke-linejoin="miter" stroke-miterlimit="10" stroke-dasharray="" stroke-dashoffset="0" font-family="none" font-weight="none" font-size="none" text-anchor="none" style="mix-blend-mode: normal"><g transform="translate(-0.0928,0.0061) scale(0.2,0.2)"><g transform="translate(0,944) scale(0.1,-0.1)"><path d="M8834,9430c-84,-12 -208,-55 -274,-95c-73,-45 -183,-146 -236,-217c-23,-32 -59,-100 -80,-153c-37,-95 -37,-96 -26,-168c6,-39 41,-160 76,-267c60,-179 88,-300 111,-475c9,-76 -26,-125 -154,-210c-127,-85 -249,-139 -570,-254c-196,-70 -302,-116 -470,-200c-248,-125 -712,-345 -816,-386c-38,-15 -102,-38 -142,-50l-72,-22l-6,56c-18,179 -28,246 -50,332c-33,131 -60,207 -112,313c-45,94 -52,143 -35,240l7,38l160,53c311,101 326,117 417,440c21,77 42,150 45,162c7,28 -67,324 -107,427c-17,44 -51,110 -76,147c-50,76 -32,69 -226,89c-125,13 -266,13 -347,-1c-36,-5 -109,-28 -162,-50l-97,-41l-11,-46c-12,-57 -27,-163 -41,-297c-22,-202 -71,-578 -81,-628c-20,-90 -31,-105 -91,-111c-29,-3 -118,-13 -198,-22c-291,-31 -366,-55 -575,-186c-66,-41 -185,-112 -265,-158c-182,-105 -265,-160 -388,-259c-190,-153 -319,-294 -424,-464l-36,-59l24,-55c40,-91 62,-130 164,-303c118,-199 180,-283 239,-324c46,-33 53,-42 67,-90c6,-20 24,-37 57,-55c33,-18 61,-45 92,-90l44,-63l-57,-59c-31,-33 -75,-90 -98,-127c-34,-56 -51,-73 -103,-102c-77,-44 -249,-213 -340,-335c-37,-49 -131,-189 -209,-310c-77,-121 -171,-257 -207,-302c-152,-190 -342,-366 -540,-502c-107,-73 -108,-74 -194,-82c-47,-5 -225,-22 -396,-39c-492,-48 -549,-61 -811,-183c-205,-96 -275,-114 -570,-147c-193,-21 -267,-34 -319,-56c-29,-12 -37,-25 -70,-111c-20,-54 -72,-170 -116,-258c-59,-121 -86,-188 -108,-275c-23,-91 -26,-116 -15,-118c26,-6 85,31 114,72c40,59 151,161 232,213c164,106 482,238 738,306c280,75 491,107 1060,162c694,67 817,106 1451,458c263,146 369,200 424,217c37,10 49,8 145,-25c138,-48 235,-98 405,-208c77,-49 234,-137 349,-194c328,-163 359,-188 437,-350c64,-132 90,-163 135,-163c19,0 34,-3 34,-6c0,-17 -96,-225 -121,-261c-83,-120 -162,-148 -604,-208c-227,-31 -342,-53 -370,-68c-11,-6 -49,-14 -85,-18c-39,-4 -113,-24 -185,-51c-136,-51 -216,-72 -360,-93c-108,-16 -415,-40 -668,-51l-158,-7l-91,-131c-50,-72 -133,-187 -184,-256c-51,-69 -107,-154 -124,-188c-32,-66 -94,-282 -80,-282c29,0 128,50 395,200c167,94 341,186 387,205c106,43 217,65 622,124c359,52 356,52 356,-10c0,-27 2,-29 28,-23c45,11 57,21 117,88c31,36 66,68 77,72c12,3 43,-5 80,-21l60,-27l301,47c532,81 655,110 777,179c111,64 173,97 175,94c1,-2 25,-77 54,-168c29,-91 65,-192 81,-225c39,-83 35,-69 95,-365c46,-227 86,-388 110,-451c5,-14 -7,-17 -86,-22c-125,-9 -317,-8 -539,3c-567,28 -806,33 -986,20c-373,-26 -606,-31 -1964,-39c-838,-6 -1412,-13 -1438,-19c-46,-10 -81,-36 -68,-49c4,-4 355,-13 779,-20c777,-13 1143,-24 1555,-48c205,-11 237,-11 370,6c235,29 622,23 730,-12c23,-8 38,-21 47,-41l12,-30l7,25c4,18 14,26 38,31c105,19 638,26 1344,18c595,-8 884,-6 1339,5c319,8 841,15 1160,16c604,2 645,0 800,-44c88,-25 145,-126 145,-256c0,-93 4,-91 -215,-103c-301,-15 -1001,-29 -2365,-45c-1519,-18 -2112,-30 -2525,-51c-236,-12 -407,-15 -715,-10c-404,6 -649,-2 -689,-23c-27,-15 -14,-43 26,-59c77,-31 224,-32 3186,-32c1912,0 3044,-4 3117,-10c186,-16 371,-58 485,-109c56,-26 80,-48 129,-116c10,-15 39,-36 65,-46c25,-11 55,-29 66,-39c15,-14 43,-20 105,-25c76,-7 88,-5 110,13c22,17 25,29 26,83c1,55 5,66 28,86c15,12 57,32 94,43c191,57 446,77 1381,112c313,11 332,13 313,28c-29,24 -243,42 -877,75c-626,32 -888,60 -1094,115c-107,29 -134,49 -190,136l-49,76l15,45c8,24 25,50 37,58c43,28 157,44 421,60c357,20 580,50 605,80c8,10 7,15 -7,19c-10,3 -153,15 -318,26c-576,39 -739,57 -830,91c-52,19 -54,21 -65,72c-15,62 -120,431 -196,687c-31,102 -73,246 -95,320c-67,223 -140,442 -166,495c-64,126 -329,431 -645,741c-155,153 -216,200 -390,300c-204,119 -307,204 -460,381c-156,181 -158,184 -158,273c0,109 41,218 132,353c62,91 96,125 213,213c166,124 281,252 554,612l128,171l24,-50c29,-63 76,-105 126,-113c85,-14 479,-36 636,-36c189,0 317,12 457,41c295,63 436,90 558,104c152,18 264,41 302,60c14,8 42,31 62,52c31,32 42,55 64,138c43,162 18,206 -117,206c-73,0 -92,-4 -238,-55c-80,-29 -266,-65 -469,-93c-106,-15 -195,-18 -530,-17c-222,1 -405,3 -407,5c-2,2 -10,92 -19,199c-31,364 -56,635 -76,803c-11,93 -20,186 -20,207c0,49 95,241 143,290c18,19 86,62 151,95c65,32 124,68 131,80c17,26 62,219 76,325c22,159 -3,524 -46,694c-24,91 -87,217 -127,252c-20,17 -75,45 -124,64c-77,27 -105,32 -204,35c-63,2 -142,0 -176,-5zM4422,7015c-2,-59 -28,-218 -58,-365c-26,-124 -54,-208 -77,-236l-23,-26l-32,27c-21,17 -56,74 -98,159c-35,72 -78,148 -94,168c-25,31 -30,46 -30,92c0,50 4,60 34,94c19,21 61,51 93,67c82,40 222,85 258,82l30,-2zM7265,6750c17,-19 18,-26 7,-65c-16,-59 -125,-323 -170,-410c-42,-80 -138,-184 -174,-187c-66,-4 -193,31 -235,65c-15,13 -76,50 -136,82c-115,63 -182,113 -192,146c-17,54 66,101 370,207c110,39 250,90 310,115c188,76 193,77 220,47zM5830,6578c0,-37 -71,-220 -130,-338c-115,-227 -147,-354 -185,-740c-39,-407 -59,-991 -36,-1053c13,-34 51,-41 152,-27c84,12 125,27 148,54c17,20 36,153 51,346c21,282 57,476 121,637c62,158 234,493 253,493c2,0 23,-11 48,-25c58,-32 166,-57 394,-90c104,-15 190,-29 192,-30c1,-1 -5,-38 -13,-81c-28,-132 -75,-209 -269,-434c-147,-171 -224,-274 -257,-345c-15,-33 -46,-136 -69,-230c-53,-221 -81,-306 -145,-442c-71,-150 -219,-397 -273,-455c-43,-46 -106,-78 -122,-62c-4,5 -20,41 -35,79c-32,79 -72,146 -155,255c-32,42 -71,103 -88,137c-26,51 -41,67 -89,96c-69,42 -119,94 -280,287c-66,80 -164,194 -216,255c-77,88 -95,115 -91,135c2,14 11,68 19,120c26,160 71,272 173,426c78,118 124,172 200,234c39,32 114,118 204,233c164,211 184,242 273,408c36,68 70,128 75,133c7,7 95,29 143,35c4,1 7,-5 7,-11zM7219,3850c24,-11 64,-35 90,-54c193,-141 401,-264 761,-451c469,-243 519,-273 618,-369c107,-103 143,-191 203,-496c66,-330 107,-435 259,-662l90,-136v-75c0,-72 -1,-75 -27,-85c-106,-41 -295,-48 -998,-33c-972,20 -1372,38 -1422,64c-36,20 -174,195 -240,305c-140,238 -204,438 -302,950l-48,253l112,127c192,217 277,289 395,333c75,28 113,59 156,127c20,31 72,94 117,140l82,82h55c33,0 72,-8 99,-20z"></path><path d="M1095,148c-368,-11 -670,-35 -732,-59c-19,-7 -24,-15 -21,-37l3,-27l1225,-7c674,-4 2474,-8 4000,-9c1526,-1 2928,-2 3115,-3c187,0 1107,-1 2045,-1c1636,0 1708,1 1775,19c39,10 83,25 98,33c25,13 36,12 91,-1c76,-19 71,-19 90,0c19,19 21,67 3,83c-15,12 -11287,21 -11692,9z"></path></g></g></g></svg>