<svg version="1.1" xmlns="http://www.w3.org/2000/svg" xmlns:xlink="http://www.w3.org/1999/xlink" width="1280.000000pt" height="1225.000000pt" viewBox="0,0,256,245"><g fill="#ffffff" fill-rule="nonzero" stroke="none" stroke-width="1" stroke-linecap="butt" stroke-linejoin="miter" stroke-miterlimit="10" stroke-dasharray="" stroke-dashoffset="0" font-family="none" font-weight="none" font-size="none" text-anchor="none" style="mix-blend-mode: normal"><g transform="translate(0.03205,-0.00375) scale(0.2,0.2)"><g transform="translate(0,1225) scale(0.1,-0.1)"><path d="M11390,12078c-547,-94 -1018,-179 -1047,-190c-28,-10 -70,-34 -93,-52c-80,-63 -75,-53 -318,-676c-55,-140 -236,-605 -403,-1032l-303,-778h-77c-42,0 -702,-16 -1466,-35c-763,-19 -2117,-53 -3008,-75c-4532,-113 -4369,-108 -4421,-126c-65,-21 -100,-44 -151,-96c-51,-53 -93,-140 -100,-210c-3,-34 27,-317 86,-798c50,-410 149,-1231 221,-1825c203,-1679 185,-1546 216,-1615c27,-61 103,-144 160,-173c70,-36 -96,-21 2374,-217c487,-39 1281,-102 1765,-140c484,-39 1205,-96 1603,-128l722,-57l660,-518c362,-285 684,-545 714,-578c65,-70 132,-198 147,-284c29,-161 -37,-291 -177,-346l-59,-23l-945,-8c-520,-4 -2297,-12 -3950,-16l-3005,-8l-58,-23c-81,-32 -166,-113 -203,-193c-24,-53 -28,-75 -28,-143c1,-49 7,-97 18,-124c22,-59 79,-133 132,-171c87,-62 100,-64 441,-70l313,-5l-54,-42c-114,-88 -213,-238 -254,-386c-12,-45 -17,-98 -16,-192c0,-113 4,-141 27,-210c99,-295 351,-492 657,-512c278,-17 557,139 688,385c120,226 113,502 -17,722c-40,67 -125,161 -196,217l-40,32h851c468,1 1865,4 3105,7l2254,6l-45,-29c-215,-142 -343,-396 -327,-653c20,-330 262,-607 589,-674c162,-33 304,-14 467,66c91,43 116,62 191,137c70,70 94,103 133,181c64,128 81,200 81,335c0,131 -17,206 -73,320c-48,97 -116,183 -196,248c-67,53 -197,123 -251,133c-50,9 -50,19 2,39c68,26 178,89 254,145c191,142 377,419 411,612c15,90 15,270 0,358c-19,103 -67,248 -113,340c-129,255 -245,370 -850,844c-252,197 -458,363 -458,368c0,5 72,195 161,421c89,227 196,502 239,612c43,110 160,409 260,665c100,256 218,557 262,670c99,255 317,811 648,1660c38,96 150,384 250,640c194,497 220,562 500,1280c182,466 298,763 392,1005c28,72 52,131 53,133c2,2 409,72 905,157c999,170 967,162 1054,255c73,78 100,147 100,250c0,96 -25,166 -82,231c-68,78 -180,130 -276,128c-28,0 -499,-77 -1046,-171zM8930,8718c-269,-694 -462,-1188 -473,-1208l-13,-25h-329h-330v640v640l405,11c223,6 487,11 587,12l181,2zM7528,8123l-3,-638l-612,-3l-613,-2v625v625l118,1c64,1 313,7 552,13c239,7 463,14 498,14l62,2zM6043,8103l-3,-618h-612h-613l-3,603l-2,602l42,1c24,1 239,7 478,13c239,7 498,14 575,14l140,2zM4560,8080v-600l-612,2l-613,3l-3,583c-1,320 -1,583 0,583c7,3 873,26 1041,27l187,2zM3075,8065v-580l-612,-2l-613,-3v570v570l138,1c75,1 335,7 577,14c242,7 456,12 475,11l35,-1zM1590,8045v-565h-444c-290,0 -447,4 -451,10c-10,16 -136,1082 -129,1089c5,5 611,25 917,29l107,2zM1590,6655v-575h-365c-201,0 -365,2 -365,4c0,7 -129,1077 -134,1114l-5,32h435h434zM3080,6655v-575h-615h-615v575v575h615h615zM4560,6655v-575h-615h-615v575v575h615h615zM6043,6658l-3,-573h-612h-613l-3,573l-2,572h617h618zM7530,6655v-575h-615h-615v575v575h615h615zM8326,7168c-31,-81 -381,-976 -417,-1065c-7,-20 -16,-23 -69,-23h-60v575v575h285h285zM1590,5417v-413l-297,24c-164,13 -301,26 -304,30c-4,4 -25,167 -48,362c-23,195 -44,367 -47,383l-6,27h351h351zM3080,5360v-470h-29c-15,0 -281,20 -590,45c-309,25 -573,45 -586,45h-25v425v425h615h615zM4560,5300c0,-291 -3,-530 -7,-530c-23,-1 -1200,92 -1210,96c-10,3 -13,108 -13,484v480h615h615zM6043,5236l2,-588l-60,6c-33,3 -296,24 -585,46c-289,22 -538,43 -555,45l-30,5l2,537c2,296 3,539 3,541c0,1 275,1 610,0l610,-3zM7530,5480v-349l-109,-278c-59,-153 -112,-288 -116,-301c-5,-17 -11,-22 -23,-17c-44,19 -115,27 -482,55c-217,17 -419,33 -447,36l-53,6v599v599h615h615zM7800,5823c0,-5 -5,-15 -10,-23c-8,-12 -10,-11 -10,8c0,12 5,22 10,22c6,0 10,-3 10,-7zM1734,1125c109,-52 199,-156 231,-269c27,-94 18,-223 -23,-307c-38,-79 -128,-169 -204,-204c-262,-119 -561,39 -610,324c-31,179 68,369 235,451c110,54 263,56 371,5zM8705,1119c80,-39 167,-128 201,-204c164,-371 -214,-737 -583,-565c-163,75 -264,270 -235,448c48,287 358,449 617,321z"></path><path d="M1455,937c-60,-29 -87,-57 -114,-117c-81,-178 86,-370 274,-316c105,31 168,114 168,221c1,131 -86,223 -218,232c-49,3 -69,0 -110,-20z"></path><path d="M8439,946c-56,-20 -96,-53 -126,-104c-24,-39 -28,-58 -28,-117c1,-78 14,-113 66,-163c48,-46 95,-66 164,-65c74,0 128,25 178,84c150,175 -36,443 -254,365z"></path></g></g></g></svg>