<svg version="1.1" xmlns="http://www.w3.org/2000/svg" xmlns:xlink="http://www.w3.org/1999/xlink" width="1280.000000pt" height="1044.000000pt" viewBox="0,0,256,208.79688"><g fill="#ffffff" fill-rule="nonzero" stroke="none" stroke-width="1" stroke-linecap="butt" stroke-linejoin="miter" stroke-miterlimit="10" stroke-dasharray="" stroke-dashoffset="0" font-family="none" font-weight="none" font-size="none" text-anchor="none" style="mix-blend-mode: normal"><g transform="translate(0.05378,0.10588) scale(0.2,0.2)"><g transform="translate(0,1044) scale(0.1,-0.1)"><path d="M1603,10429c-842,-98 -1500,-759 -1592,-1601c-15,-130 -15,-2059 -1,-2183c50,-429 233,-802 542,-1100c136,-132 262,-223 420,-305l118,-61l2,-971l3,-972l800,894l800,893l6,1016c6,1085 6,1089 59,1366c93,481 337,969 674,1347c166,187 348,344 565,489c298,199 657,349 1004,420c263,53 234,52 1416,58l1104,6l-51,61c-301,362 -728,592 -1194,643c-118,13 -4564,13 -4675,0z"></path><path d="M5280,8974c-592,-80 -1127,-403 -1475,-889c-182,-255 -318,-576 -369,-875c-35,-202 -37,-326 -33,-1730c4,-1528 0,-1445 68,-1707c196,-764 800,-1365 1564,-1558c271,-68 153,-65 2464,-65h2086l944,-1068c519,-587 948,-1068 952,-1070c5,-2 9,515 9,1155v1159l70,31c38,17 117,59 175,94c563,335 939,892 1042,1543c17,102 18,226 18,1576c0,1364 -1,1473 -18,1579c-153,967 -903,1699 -1871,1826c-103,13 -441,15 -2819,14c-2273,-1 -2719,-3 -2807,-15z"></path></g></g></g></svg>