<svg version="1.1" xmlns="http://www.w3.org/2000/svg" xmlns:xlink="http://www.w3.org/1999/xlink" width="512px" height="512px" viewBox="0,0,256,256"><g fill="#ffffff" fill-rule="nonzero" stroke="none" stroke-width="1" stroke-linecap="butt" stroke-linejoin="miter" stroke-miterlimit="10" stroke-dasharray="" stroke-dashoffset="0" font-family="none" font-weight="none" font-size="none" text-anchor="none" style="mix-blend-mode: normal"><g transform="scale(0.5,0.5)"><g><path d="M254.78,316.93v10.24c19.65,-0.01 35.55,-15.94 35.56,-35.59c-0.01,-19.65 -15.91,-35.58 -35.56,-35.59c-19.65,0.01 -35.55,15.94 -35.56,35.59c0.01,19.65 15.91,35.58 35.56,35.59v-10.24v-10.24c-4.19,-0.01 -7.9,-1.67 -10.66,-4.42c-2.75,-2.76 -4.42,-6.48 -4.42,-10.69c0.01,-4.21 1.67,-7.92 4.42,-10.69c2.76,-2.75 6.47,-4.42 10.66,-4.42c4.19,0.01 7.9,1.67 10.66,4.42c2.75,2.76 4.42,6.48 4.42,10.69c-0.01,4.21 -1.67,7.92 -4.42,10.69c-2.76,2.75 -6.47,4.42 -10.66,4.42z"></path><path d="M340.01,189.81l-71.69,71.69c-4,4 -4,10.48 0,14.48c4,4 10.48,4 14.48,0l71.69,-71.69c4,-4 4,-10.48 0,-14.48c-4,-4 -10.48,-4 -14.48,0"></path><path d="M436.85,93.47l-32.23,32.26c-4,4 -3.99,10.48 0.01,14.48c4,4 10.48,3.99 14.48,-0.01l32.23,-32.26c4,-4 3.99,-10.48 -0.01,-14.48c-4,-3.99 -10.48,-3.99 -14.48,0.01"></path><path d="M471.04,106.02l-32.23,-32.26c-4,-4 -10.48,-4 -14.48,-0.01c-4,4 -4,10.48 -0.01,14.48l32.23,32.26c4,4 10.48,4 14.48,0.01c4,-4 4,-10.48 0.01,-14.48"></path><path d="M465.69,291.84h10.24c-0.01,-121.59 -98.45,-220.15 -219.93,-220.16c-121.48,0.01 -219.92,98.57 -219.93,220.16c0.01,121.59 98.45,220.15 219.93,220.16c121.48,-0.01 219.92,-98.57 219.93,-220.16h-10.24h-10.24c-0.01,55.18 -22.31,105.03 -58.42,141.2c-36.13,36.15 -85.92,58.48 -141.03,58.48c-55.11,-0.01 -104.9,-22.33 -141.03,-58.48c-36.11,-36.17 -58.42,-86.02 -58.42,-141.2c0.01,-55.18 22.31,-105.03 58.42,-141.2c36.13,-36.15 85.92,-58.47 141.03,-58.48c55.11,0.01 104.9,22.33 141.03,58.48c36.11,36.17 58.42,86.02 58.42,141.2z"></path><path d="M254.78,81.44v10.24c25.31,-0.01 45.79,-20.53 45.8,-45.84c-0.01,-25.31 -20.5,-45.83 -45.8,-45.84c-25.31,0.01 -45.79,20.53 -45.8,45.84c0.01,25.31 20.49,45.83 45.8,45.84v-10.24v-10.24c-7.02,-0.01 -13.28,-2.82 -17.9,-7.42c-4.6,-4.62 -7.41,-10.9 -7.42,-17.93c0.01,-7.04 2.82,-13.31 7.42,-17.93c4.62,-4.6 10.88,-7.42 17.9,-7.42c7.02,0.01 13.28,2.82 17.9,7.42c4.6,4.62 7.41,10.9 7.42,17.93c-0.01,7.04 -2.82,13.31 -7.42,17.93c-4.62,4.6 -10.88,7.42 -17.9,7.42z"></path></g></g></g></svg>